<?xml version="1.0" encoding="UTF-8"?>
<!DOCTYPE svg PUBLIC "-//W3C//DTD SVG 1.1//EN" "http://www.w3.org/Graphics/SVG/1.1/DTD/svg11.dtd">
<!-- Creator: CorelDRAW X6 -->
<svg xmlns="http://www.w3.org/2000/svg" xml:space="preserve" width="0.836661in" height="0.393331in" version="1.1" style="shape-rendering:geometricPrecision; text-rendering:geometricPrecision; image-rendering:optimizeQuality; fill-rule:evenodd; clip-rule:evenodd"
viewBox="0 0 837 393"
 xmlns:xlink="http://www.w3.org/1999/xlink">
 <defs>
  <style type="text/css">
   <![CDATA[
    .fil0 {fill:#CF2129}
    .fil1 {fill:#FEFEFE;fill-rule:nonzero}
   ]]>
  </style>
 </defs>
 <g id="Layer_x0020_1">
  <metadata id="CorelCorpID_0Corel-Layer"/>
  <g id="_195900536">
   <polygon class="fil0" points="38,99 820,61 820,271 38,271 "/>
   <polygon class="fil1" points="80,349 90,349 90,290 113,290 113,282 57,282 57,290 80,290 "/>
   <polygon id="1" class="fil1" points="162,311 133,311 133,290 164,290 164,282 123,282 123,349 166,349 166,342 133,342 133,318 162,318 "/>
   <path id="2" class="fil1" d="M231 340c-4,2 -10,3 -16,3 -18,0 -29,-10 -29,-27 0,-17 12,-27 29,-27 6,0 12,1 15,3l2 -7c-3,-1 -9,-3 -18,-3 -23,0 -39,14 -39,35 0,22 16,34 37,34 9,0 16,-2 20,-3l-2 -7z"/>
   <polygon id="3" class="fil1" points="248,282 248,349 258,349 258,318 294,318 294,349 304,349 304,282 294,282 294,310 258,310 258,282 "/>
   <path id="4" class="fil1" d="M332 349l0 -28c0,-11 0,-19 -1,-27l0 0c4,7 9,15 14,22l24 34 10 0 0 -66 -9 0 0 28c0,10 0,18 1,27l0 0c-4,-7 -8,-14 -14,-22l-24 -34 -11 0 0 66 9 0z"/>
   <path id="5" class="fil1" d="M430 281c-20,0 -35,14 -35,35 0,20 14,34 34,34 19,0 35,-12 35,-35 0,-20 -13,-34 -34,-34zm0 7c16,0 24,14 24,27 0,15 -9,28 -24,28 -15,0 -24,-13 -24,-27 0,-15 8,-28 24,-28z"/>
   <polygon id="6" class="fil1" points="478,349 520,349 520,342 488,342 488,282 478,282 "/>
   <path id="7" class="fil1" d="M560 281c-20,0 -35,14 -35,35 0,20 14,34 34,34 19,0 35,-12 35,-35 0,-20 -13,-34 -34,-34zm0 7c16,0 24,14 24,27 0,15 -9,28 -24,28 -15,0 -24,-13 -24,-27 0,-15 8,-28 24,-28z"/>
   <path id="8" class="fil1" d="M666 314l-25 0 0 7 15 0 0 20c-2,1 -7,2 -13,2 -18,0 -29,-10 -29,-27 0,-17 12,-27 30,-27 8,0 13,1 17,3l2 -7c-3,-1 -10,-3 -19,-3 -25,0 -41,14 -41,34 0,10 4,19 11,25 7,6 17,9 28,9 10,0 19,-2 23,-4l0 -32z"/>
   <polygon id="9" class="fil1" points="683,282 683,349 693,349 693,282 "/>
   <polygon id="10" class="fil1" points="751,311 722,311 722,290 753,290 753,282 712,282 712,349 755,349 755,342 722,342 722,318 751,318 "/>
   <path id="11" class="fil1" d="M766 345c4,2 12,4 19,4 18,0 26,-9 26,-19 0,-10 -7,-15 -19,-19 -10,-4 -15,-7 -15,-13 0,-5 4,-10 14,-10 7,0 12,2 14,3l3 -7c-3,-2 -9,-3 -17,-3 -15,0 -24,8 -24,18 0,9 8,15 20,19 10,3 14,7 14,13 0,7 -6,11 -16,11 -7,0 -13,-2 -17,-4l-2 7z"/>
   <path class="fil1" d="M53 267c6,3 17,6 28,6 27,0 40,-13 40,-29 0,-13 -8,-22 -26,-28 -13,-5 -18,-7 -18,-13 0,-5 5,-9 14,-9 10,0 17,3 21,4l5 -17c-6,-3 -14,-5 -25,-5 -23,0 -37,12 -37,28 0,14 11,22 27,28 12,4 16,7 16,13 0,6 -5,10 -16,10 -9,0 -19,-3 -25,-6l-5 17zm85 -89l0 94 22 0 0 -39 37 0 0 39 22 0 0 -94 -22 0 0 36 -37 0 0 -36 -22 0zm103 94l22 0 0 -37 7 0c9,0 13,3 16,15 3,12 5,19 7,22l23 0c-2,-4 -5,-16 -8,-26 -2,-9 -6,-15 -13,-18l0 0c8,-3 17,-11 17,-23 0,-9 -3,-15 -9,-20 -7,-5 -17,-7 -32,-7 -12,0 -22,1 -30,2l0 92zm22 -78c2,0 5,-1 10,-1 10,0 16,4 16,13 0,8 -7,13 -18,13l-9 0 0 -26zm67 -16l0 94 22 0 0 -94 -22 0zm70 89c6,3 17,6 28,6 27,0 40,-13 40,-29 0,-13 -8,-22 -26,-28 -13,-5 -18,-7 -18,-13 0,-5 5,-9 14,-9 10,0 17,3 21,4l5 -17c-6,-3 -14,-5 -25,-5 -23,0 -37,12 -37,28 0,14 11,22 27,28 12,4 16,7 16,13 0,6 -5,10 -16,10 -9,0 -19,-3 -25,-6l-5 17zm137 -20l8 24 24 0 -30 -94 -29 0 -30 94 23 0 7 -24 28 0zm-25 -16l6 -20c2,-5 3,-13 5,-18l0 0c1,6 3,13 5,18l6 20 -22 0zm72 -68l0 108 22 0 0 -39 37 0 0 39 22 0 0 -94 -22 0 0 36 -37 0 0 -36 -23 -14zm104 14l0 94 22 0 0 -94 -22 0zm44 93c5,1 13,1 24,1 20,0 32,-3 39,-8 6,-5 10,-11 10,-20 0,-12 -8,-20 -20,-23l0 0c11,-4 16,-12 16,-20 0,-8 -5,-15 -12,-18 -7,-4 -15,-5 -29,-5 -11,0 -23,1 -29,2l0 92zm22 -78c2,0 5,-1 9,-1 10,0 16,4 16,11 0,7 -6,12 -18,12l-7 0 0 -22zm0 37l8 0c11,0 20,4 20,13 0,10 -9,13 -19,13 -4,0 -6,0 -9,0l0 -26z"/>
  </g>
 </g>
</svg>
